<svg version="1.0" xmlns="http://www.w3.org/2000/svg" width="200" height="200" viewBox="0 0 200 200" fill="#333333" preserveAspectRatio="xMidYMid meet">

  <g transform="translate(0,200) scale(0.1,-0.1)" stroke="none">
    <path d="M666 1827 c-10 -8 -40 -54 -66 -103 l-47 -89 -97 0 c-113 0 -117 -3
-142 -95 -27 -99 -23 -95 -120 -114 -128 -25 -127 -23 -136 -209 -3 -83 -7
-235 -7 -337 l-1 -186 48 -45 c26 -25 94 -86 152 -135 58 -49 114 -97 125
-108 11 -10 46 -38 79 -62 68 -51 101 -55 145 -18 26 21 31 33 31 69 0 23 -7
60 -16 81 -26 62 -16 154 22 201 88 111 253 108 325 -5 15 -24 56 -114 90
-201 88 -224 107 -264 132 -283 20 -16 56 -18 378 -18 332 0 357 1 372 18 15
17 17 72 17 579 0 308 -3 575 -6 592 -5 26 -49 67 -246 234 -131 111 -249 205
-261 210 -30 11 -64 1 -106 -34 -20 -16 -41 -29 -48 -29 -7 0 -58 20 -113 45
-55 25 -106 45 -114 45 -8 0 -28 -13 -46 -30 l-32 -30 -134 35 c-153 40 -154
40 -178 22z m168 -71 c49 -14 93 -29 97 -33 5 -5 -62 -103 -149 -218 -146
-196 -157 -213 -155 -250 1 -22 25 -130 52 -240 28 -110 47 -202 43 -206 -4
-3 -28 -18 -55 -33 l-47 -27 -19 43 c-10 24 -32 72 -49 108 -51 110 -98 213
-122 263 l-22 47 22 53 c28 66 239 488 253 505 14 18 52 15 151 -12z m322 -21
c41 -19 74 -38 74 -42 -1 -4 -31 -32 -68 -60 -38 -29 -77 -61 -88 -70 -10 -10
-53 -45 -94 -78 -41 -33 -85 -68 -97 -79 -23 -19 -23 -21 -23 -308 l0 -288
-34 0 c-19 0 -37 4 -40 8 -10 17 -106 411 -106 437 0 24 58 113 147 225 6 8
49 65 94 125 96 129 128 165 147 165 8 0 48 -16 88 -35z m330 -33 c61 -49 322
-268 390 -327 l23 -20 3 -557 c2 -447 0 -560 -10 -570 -10 -10 -82 -13 -325
-13 -172 0 -324 3 -338 7 -19 6 -31 20 -44 55 -32 84 -146 356 -168 402 -12
24 -41 59 -64 79 l-43 34 0 283 0 283 58 49 c150 129 430 351 442 352 3 1 37
-25 76 -57z m-1036 -282 c-44 -87 -83 -173 -86 -189 -5 -24 9 -63 66 -188 40
-87 90 -197 111 -245 l39 -87 -22 -76 -22 -76 -18 23 c-10 13 -50 64 -88 113
-38 50 -96 124 -128 166 -33 42 -63 86 -66 97 -4 11 7 78 24 149 17 70 42 175
56 233 14 58 34 135 45 173 l20 67 75 0 74 0 -80 -160z m-180 -42 c0 -7 -16
-76 -34 -153 -54 -219 -61 -262 -47 -291 6 -13 77 -110 158 -215 233 -300 252
-331 218 -359 -19 -16 -57 -1 -106 43 -20 18 -111 97 -203 176 l-166 143 5 52
c3 28 8 162 11 298 4 152 11 255 18 269 8 17 26 26 66 35 76 16 80 16 80 2z" />
    <path d="M1216 1119 l-26 -20 0 -172 c1 -234 -12 -220 208 -221 145 -1 171 1
195 17 l27 17 0 178 c0 236 13 222 -212 222 -152 0 -167 -2 -192 -21z m164
-99 l0 -70 -70 0 -70 0 0 52 c0 70 17 88 87 88 l53 0 0 -70z m178 57 c6 -7 12
-37 14 -67 l3 -55 -72 -3 -73 -3 0 71 0 70 59 0 c36 0 63 -5 69 -13z m-178
-247 l0 -70 -60 0 c-70 0 -80 11 -80 89 l0 51 70 0 70 0 0 -70z m190 12 c0
-32 -5 -63 -12 -70 -7 -7 -38 -12 -70 -12 l-58 0 0 70 0 70 70 0 70 0 0 -58z" />
    <path d="M729 673 c-37 -22 -59 -64 -59 -110 0 -37 32 -136 52 -160 12 -15 65
0 167 47 73 34 83 48 62 88 -6 9 -20 39 -33 66 -13 28 -36 57 -53 68 -37 22
-101 23 -136 1z m105 -27 c26 -11 40 -28 61 -72 l27 -57 -23 -18 c-32 -25
-149 -63 -158 -53 -5 5 -15 28 -24 52 -30 77 -19 124 36 147 40 18 41 18 81 1z" />
  </g>
</svg>
